<?xml version="1.0" encoding="UTF-8" standalone="no"?>
<svg
   xmlns:dc="http://purl.org/dc/elements/1.1/"
   xmlns:cc="http://creativecommons.org/ns#"
   xmlns:rdf="http://www.w3.org/1999/02/22-rdf-syntax-ns#"
   xmlns:svg="http://www.w3.org/2000/svg"
   xmlns="http://www.w3.org/2000/svg"
   xmlns:sodipodi="http://sodipodi.sourceforge.net/DTD/sodipodi-0.dtd"
   xmlns:inkscape="http://www.inkscape.org/namespaces/inkscape"
   version="1.1"
   id="Layer_1"
   x="0px"
   y="0px"
   viewBox="0 0 100 99.999998"
   xml:space="preserve"
   sodipodi:docname="bookd_transparent.svg"
   width="100"
   height="100"
   inkscape:version="1.0.2 (e86c870879, 2021-01-15)"><metadata
   id="metadata53"><rdf:RDF><cc:Work
       rdf:about=""><dc:format>image/svg+xml</dc:format><dc:type
         rdf:resource="http://purl.org/dc/dcmitype/StillImage" /><dc:title /></cc:Work></rdf:RDF></metadata><defs
   id="defs51" /><sodipodi:namedview
   pagecolor="#ffffff"
   bordercolor="#666666"
   borderopacity="1"
   objecttolerance="10"
   gridtolerance="10"
   guidetolerance="10"
   inkscape:pageopacity="0"
   inkscape:pageshadow="2"
   inkscape:window-width="1366"
   inkscape:window-height="708"
   id="namedview49"
   showgrid="false"
   inkscape:zoom="5.702306"
   inkscape:cx="63"
   inkscape:cy="39.611566"
   inkscape:window-x="0"
   inkscape:window-y="0"
   inkscape:window-maximized="1"
   inkscape:current-layer="Layer_1"
   inkscape:document-rotation="0" />
<style
   type="text/css"
   id="style2">
	.st0{fill:none;stroke:#3989C9;stroke-width:3.0446;}
	.st1{fill:#009D4B;}
	.st2{fill:none;stroke:#6DC065;stroke-width:2;}
	.st3{fill:#CE242B;}
	.st4{fill:none;stroke:#EF3C39;stroke-width:2;}
</style>
<g
   id="g8"
   transform="matrix(1.5716073,0,0,1.5716073,-44.276009,-23.813907)"
   style="stroke:#ffffff;stroke-opacity:1">
	<path
   class="st0"
   d="m 61.9,77.2 m 0,-58.9 M 36.4,66.4 c 6.3,-4.5 16.7,-4.5 23,0 M 57.5,18 c -18,17.8 -18,41.6 0,59.4 M 59.6,18 c 0,0 -0.3,0 -0.3,0 -16.4,0.1 -29.6,13.4 -29.5,29.8 0.1,16.4 13.4,29.6 29.8,29.5 M 59.3,16.5 59,78.8 M 59.6,47.7 H 29.8 m 6.1,-17.9"
   id="path4"
   style="stroke:#ffffff;stroke-opacity:1" />
	<path
   class="st0"
   d="m 58.6,30 c -6.3,4.5 -16.7,4.5 -23,0"
   id="path6"
   style="stroke:#ffffff;stroke-opacity:1" />
</g>
<g
   id="g24"
   transform="matrix(2.0287972,0,0,1.7255069,-78.5654,-32.798991)"
   style="stroke-width:0;stroke-miterlimit:4;stroke-dasharray:none;fill:#ffffff;fill-opacity:1">
	<g
   id="g22"
   style="stroke-width:0;stroke-miterlimit:4;stroke-dasharray:none;fill:#ffffff;fill-opacity:1">
		<g
   id="g14"
   style="stroke-width:0;stroke-miterlimit:4;stroke-dasharray:none;fill:#ffffff;fill-opacity:1">
			<path
   class="st1"
   d="M 71.8,51.2 V 39.3 c 0,-0.5 0.5,-1 1,-1 h 5.6 c 0.5,0 1,0.5 1,1 v 11.9"
   id="path10"
   style="stroke-width:0;stroke-miterlimit:4;stroke-dasharray:none;fill:#ffffff;fill-opacity:1" />
			<path
   class="st2"
   d="M 71.8,51.2 V 39.3 c 0,-0.5 0.5,-1 1,-1 h 5.6 c 0.5,0 1,0.5 1,1 v 11.9"
   id="path12"
   style="stroke-width:0;stroke-miterlimit:4;stroke-dasharray:none;fill:#ffffff;fill-opacity:1" />
		</g>
		<g
   id="g20"
   style="stroke-width:0;stroke-miterlimit:4;stroke-dasharray:none;fill:#ffffff;fill-opacity:1">
			<path
   class="st1"
   d="m 74.3,51.2 c 0.5,0 1.4,0 2,0 h 5.8 c 0.6,0 0.7,0.4 0.4,0.8 l -2.7,3.7 c -0.3,0.4 -0.9,1.2 -1.2,1.6 L 75.9,61 c -0.3,0.4 -0.9,0.4 -1.2,0 L 72,57.3 C 71.7,56.9 71.1,56.1 70.8,55.7 L 68.1,52 C 67.8,51.6 68,51.2 68.5,51.2 Z"
   id="path16"
   style="stroke-width:0;stroke-miterlimit:4;stroke-dasharray:none;fill:#ffffff;fill-opacity:1" />
			<path
   class="st2"
   d="m 74.3,51.2 c 0.5,0 1.4,0 2,0 h 5.8 c 0.6,0 0.7,0.4 0.4,0.8 l -2.7,3.7 c -0.3,0.4 -0.9,1.2 -1.2,1.6 L 75.9,61 c -0.3,0.4 -0.9,0.4 -1.2,0 L 72,57.3 C 71.7,56.9 71.1,56.1 70.8,55.7 L 68.1,52 C 67.8,51.6 68,51.2 68.5,51.2 Z"
   id="path18"
   style="stroke-width:0;stroke-miterlimit:4;stroke-dasharray:none;fill:#ffffff;fill-opacity:1" />
		</g>
	</g>
</g>
<g
   id="g46"
   transform="matrix(1.5716073,0,0,1.5716073,-44.276009,-23.813907)"
   style="stroke:#ffffff;stroke-opacity:1">
	<g
   id="g44"
   style="stroke:#ffffff;stroke-opacity:1">
		<g
   id="g42"
   style="stroke:#ffffff;stroke-opacity:1">
			<g
   id="g30"
   style="stroke:#ffffff;stroke-opacity:1">
				<g
   id="g28"
   style="stroke:#ffffff;stroke-opacity:1">
					<path
   class="st3"
   d="m 89.8,17.5 c 0.5,0 1,0.5 1,1 V 29 c 0,0.5 -0.3,0.7 -0.8,0.4 L 76.8,18.1 C 76.4,17.7 76.5,17.5 77,17.5 Z"
   id="path26"
   style="stroke:#ffffff;stroke-opacity:1" />
				</g>
			</g>
			<g
   id="g40"
   style="stroke:#ffffff;stroke-opacity:1">
				<g
   id="g34"
   style="stroke:#ffffff;stroke-opacity:1">
					<path
   class="st4"
   d="m 90.8,29 c 0,0.5 0,1.4 0,2 v 45.9 c 0,0.5 -0.5,1 -1,1 h -29 c -0.5,0 -1,-0.5 -1,-1 V 18.5 c 0,-0.5 0.5,-1 1,-1 H 75 c 0.6,0 1.4,0 2,0 h 12.8 c 0.5,0 1,0.5 1,1 z"
   id="path32"
   style="stroke:#ffffff;stroke-opacity:1" />
				</g>
				<g
   id="g38"
   style="stroke:#ffffff;stroke-opacity:1">
					<path
   class="st4"
   d="m 75.8,17.3 c 0,0 0.1,0 0.1,0.1 0.1,0.1 0.5,0.4 0.9,0.7 l 14,11.9"
   id="path36"
   style="stroke:#ffffff;stroke-opacity:1" />
				</g>
			</g>
		</g>
	</g>
</g>
<path
   style="fill:#ffffff;fill-opacity:1;fill-rule:evenodd;stroke:#ffffff;stroke-width:0;stroke-opacity:1"
   d="M 45.200184,99.831974 C 35.387332,98.974882 26.187423,95.312137 18.544301,89.219514 16.698642,87.748271 12.681653,83.750543 11.173247,81.883805 9.2594763,79.515405 6.8189201,75.688408 5.4078966,72.843252 3.0240511,68.036519 1.552051,63.337896 0.72737747,57.903035 0.29363761,55.044551 0.2073044,48.721874 0.56022846,45.66175 1.476246,37.719176 4.1153374,30.478638 8.4542827,24.003846 10.558074,20.864461 12.30516,18.784759 15.234204,15.933139 23.294567,8.085834 33.640295,3.3733283 45.050167,2.3518911 48.054261,2.0829579 96.743801,2.0996168 97.64588,2.3698865 c 0.796723,0.2387038 1.698473,1.0622342 2.031873,1.855624 0.197252,0.4693969 0.237137,8.3681875 0.237137,46.9616745 0,45.261436 -0.0082,46.413292 -0.333668,47.048005 -0.402778,0.7854 -0.985488,1.351465 -1.650634,1.603483 -0.596876,0.226147 -50.136571,0.219857 -52.730404,-0.0067 z M 96.93364,60.513321 V 23.982168 L 89.621242,17.767456 C 85.599424,14.349364 80.609162,10.112536 78.531771,8.3522829 L 74.754695,5.1518233 H 62.95869 51.162684 V 51.098147 97.044472 H 74.048162 96.93364 Z m -50.722958,27.368191 -0.04598,-6.532445 -1.628519,-0.812962 c -1.910879,-0.953916 -4.328172,-1.784969 -6.581274,-2.26261 -1.993722,-0.422655 -3.978259,-0.62646 -3.978259,-0.408557 0,0.532081 3.713184,6.444161 5.842387,9.30217 2.134937,2.865704 5.927537,7.246849 6.273338,7.246849 0.10001,0 0.146293,-2.555614 0.118303,-6.532445 z m -8.15603,4.453589 C 34.822863,88.327933 32.114134,84.216896 29.754175,79.73747 l -1.126234,-2.1377 -0.789155,0.08792 c -3.374112,0.375905 -6.457978,1.142972 -9.13076,2.271144 -1.054289,0.445013 -1.970249,0.895448 -2.035465,1.00097 -0.163762,0.264972 3.54904,3.814029 5.612444,5.364918 4.422123,3.323743 9.339338,5.803301 14.489184,7.30633 3.094921,0.903278 3.072471,0.926002 1.280463,-1.29595 z M 19.070404,74.887814 c 1.943503,-0.652562 3.815104,-1.11508 5.861495,-1.448515 L 26.752668,73.142626 26.15529,71.492344 C 24.293424,66.348858 23.270675,61.399973 22.656015,54.560045 l -0.10652,-1.185347 -8.798094,0.04546 -8.798093,0.04546 0.055108,1.052206 c 0.1656237,3.162322 1.2692237,8.305571 2.5211485,11.749632 1.0055109,2.766174 2.8792325,6.502117 4.5049815,8.982321 l 1.404705,2.14298 2.157948,-1.031658 c 1.186871,-0.567413 2.749813,-1.230386 3.473205,-1.473278 z m 27.182389,-6.033692 c 1.75e-4,-4.02688 0.05228,-9.156383 0.115693,-11.398897 l 0.115289,-4.077298 H 36.89823 27.312683 l 0.0014,1.008364 c 0.0029,2.030345 0.528255,5.703331 1.335686,9.338327 0.445755,2.006757 1.987899,6.898216 2.658951,8.433808 l 0.351921,0.805312 2.078667,0.106534 c 3.461077,0.177385 7.910607,1.187281 10.847051,2.461924 0.771617,0.33494 1.462128,0.616755 1.534467,0.626255 0.07234,0.0095 0.131708,-3.277449 0.131929,-7.304329 z M 22.657358,47.634636 c 0.560748,-6.173641 1.437573,-10.706466 2.918584,-15.087876 0.280043,-0.828476 0.509168,-1.561351 0.509168,-1.628615 0,-0.06726 -0.651053,-0.215899 -1.446783,-0.330303 -3.821161,-0.549376 -7.460455,-1.649943 -10.500344,-3.175432 -0.960948,-0.482225 -1.818614,-0.832624 -1.905924,-0.778663 -0.31303,0.193463 -1.974494,3.112981 -3.0693329,5.393419 -2.3271643,4.847248 -3.5632379,9.494033 -4.1983329,15.782838 L 4.8625603,48.818368 H 13.7062 22.54984 Z M 46.427757,37.855933 V 26.893498 l -1.446783,0.727535 c -3.04839,1.532927 -7.506244,2.718349 -11.959435,3.180228 l -2.095005,0.217291 -0.760412,2.268738 c -1.619454,4.831759 -2.853439,11.14964 -2.853439,14.609323 v 0.921755 h 9.557537 9.557537 z M 29.018028,24.047688 c 2.349399,-4.85894 5.495114,-9.732029 9.30713,-14.4178588 C 39.107071,8.6686789 39.723401,7.858865 39.694779,7.8302423 39.595551,7.7310148 36.33506,8.640954 34.502757,9.279234 27.626228,11.674662 21.187768,15.91713 16.428369,21.188916 l -1.416739,1.569262 0.967976,0.489465 c 3.188064,1.61207 7.945378,2.878805 11.008759,2.931312 l 0.990938,0.01699 1.038725,-2.148253 z m 6.799986,1.707653 c 3.156183,-0.545464 7.162892,-2.02186 9.43982,-3.478393 0.550751,-0.35231 1.078749,-0.640566 1.173329,-0.640566 0.10954,0 0.171962,-2.578135 0.171962,-7.102389 0,-3.906315 -0.06266,-7.1023903 -0.139251,-7.1023903 -0.190995,0 -3.522326,3.7244073 -5.080017,5.6794263 -2.715096,3.40765 -5.054053,6.936286 -7.141093,10.773311 -0.628621,1.155721 -1.142948,2.152203 -1.142948,2.214404 0,0.118597 0.16713,0.09748 2.718198,-0.343403 z"
   id="path852" /></svg>
